{
	"asset":{
		"version":"2.0",
		"generator":"Created using the official Cinema 4D glTF Exporter 1.000x284978"
	},
	"scenes":[{
		"nodes":[0,
		6]
	}],
	"nodes":[{
		"name":"SK_Archetype_003",
		"translation":[0.0,
		0.0,
		0.0],
		"rotation":[-0.7071067690849304,
		0.0,
		0.0,
		-0.7071067690849304],
		"scale":[1.0,
		1.0,
		1.0],
		"children":[1,
		2,
		3,
		4,
		5]
	},
	{
		"name":"b_PWSlot_002",
		"translation":[-125.3868408203125,
		-190.60000610351563,
		23.910552978515626],
		"rotation":[0.0,
		0.7071067690849304,
		0.0,
		-0.7071067690849304],
		"scale":[1.0,
		1.0,
		1.0]
	},
	{
		"name":"b_PWSlot_001",
		"translation":[-125.3868408203125,
		190.60000610351563,
		23.910552978515626],
		"rotation":[0.0,
		0.7071067690849304,
		0.0,
		-0.7071067690849304],
		"scale":[1.0,
		1.0,
		1.0]
	},
	{
		"name":"b_Engines_Trail_Right",
		"translation":[-594.0421752929688,
		-363.20001220703127,
		2.0032806396484377],
		"rotation":[-6.123234262925839e-17,
		3.7493993930529858e-33,
		1.0,
		-6.123234262925839e-17],
		"scale":[1.0,
		1.0,
		1.0]
	},
	{
		"name":"b_Engines_Trail_Left",
		"translation":[-594.0421752929688,
		363.20001220703127,
		2.003276824951172],
		"rotation":[-6.123234262925839e-17,
		3.7493993930529858e-33,
		1.0,
		-6.123234262925839e-17],
		"scale":[1.0,
		1.0,
		1.0]
	},
	{
		"name":"b_SWSlot_001",
		"translation":[328.4144287109375,
		-3.3553465317607767e-14,
		151.1113739013672],
		"rotation":[0.0,
		0.0,
		0.0,
		-1.0],
		"scale":[1.0,
		1.0,
		1.0]
	},
	{
		"name":"SK_Archetype_003",
		"children":[7]
	},
	{
		"name":"SK_Archetype_003",
		"mesh":0,
		"skin":0
	}],
	"textures":[{
		"sampler":0,
		"source":0
	},
	{
		"sampler":1,
		"source":1
	}],
	"meshes":[{
		"name":"SK_Archetype_003",
		"primitives":[{
			"attributes":{
				"POSITION":1,
				"JOINTS_0":2,
				"WEIGHTS_0":3
			},
			"indices":0,
			"material":0
		}]
	}],
	"accessors":[{
		"bufferView":0,
		"type":"SCALAR",
		"componentType":5123,
		"max":[6734],
		"count":32784,
		"byteOffset":0,
		"min":[0]
	},
	{
		"bufferView":1,
		"type":"VEC3",
		"componentType":5126,
		"max":[583.2808227539063,
		247.3914031982422,
		507.2567138671875],
		"count":6735,
		"byteOffset":0,
		"min":[-619.7072143554688,
		-627.2479248046875,
		-507.2567138671875]
	},
	{
		"bufferView":2,
		"type":"VEC4",
		"componentType":5123,
		"max":[0,
		0,
		0,
		0],
		"count":6735,
		"byteOffset":0,
		"min":[0,
		0,
		0,
		0]
	},
	{
		"bufferView":3,
		"type":"VEC4",
		"componentType":5126,
		"max":[1.0,
		0.0,
		0.0,
		0.0],
		"count":6735,
		"byteOffset":0,
		"min":[1.0,
		0.0,
		0.0,
		0.0]
	},
	{
		"bufferView":4,
		"type":"MAT4",
		"componentType":5126,
		"max":[1.0,
		0.0,
		0.0,
		0.0,
		0.0,
		6.123234262925839e-17,
		1.0,
		0.0,
		0.0,
		-1.0,
		6.123234262925839e-17,
		0.0,
		0.0,
		0.0,
		0.0,
		1.0],
		"count":1,
		"byteOffset":0,
		"min":[1.0,
		0.0,
		0.0,
		0.0,
		0.0,
		6.123234262925839e-17,
		1.0,
		0.0,
		0.0,
		-1.0,
		6.123234262925839e-17,
		0.0,
		0.0,
		0.0,
		0.0,
		1.0]
	}],
	"skins":[{
		"inverseBindMatrices":4,
		"joints":[0]
	}],
	"bufferViews":[{
		"buffer":0,
		"byteOffset":0,
		"byteLength":65568,
		"target":34963
	},
	{
		"buffer":0,
		"byteOffset":65568,
		"byteLength":80820,
		"target":34962
	},
	{
		"buffer":0,
		"byteOffset":146388,
		"byteLength":53880,
		"target":34962
	},
	{
		"buffer":0,
		"byteOffset":200268,
		"byteLength":107760,
		"target":34962
	},
	{
		"buffer":1,
		"byteOffset":0,
		"byteLength":64
	}],
	"buffers":[{
		"uri":"data:application/octet-stream;base64,",
		"byteLength":308028
	},
	{
		"uri":"data:application/octet-stream;base64,",
		"byteLength":64
	}],
	"images":[{
		"uri":"data:image/jpeg;base64,"
	},
	{
		"uri":"data:image/jpeg;base64,"
	}],
	"samplers":[{
		"magFilter":9729,
		"minFilter":9729,
		"wrapS":10497,
		"wrapT":10497
	},
	{
		"magFilter":9729,
		"minFilter":9729,
		"wrapS":10497,
		"wrapT":10497
	}],
	"materials":[{
		"pbrMetallicRoughness":{
			"baseColorTexture":{
				"index":0
			},
			"baseColorFactor":[0.8,
			0.8,
			0.8,
			1.0],
			"metallicFactor":0.0,
			"roughnessFactor":0.5
		},
		"normalTexture":{
			"index":1,
			"scale":1.0
		},
		"emissiveFactor":[0.0,
		0.0,
		0.0],
		"alphaMode":"OPAQUE",
		"doubleSided":false,
		"name":"MI_Archetype_003"
	}]
}